<svg width="375" height="269" viewBox="0 0 375 269" fill="none" xmlns="http://www.w3.org/2000/svg">
<g filter="url(#filter0_d_1_9)">
<rect x="63" y="27" width="252" height="173" rx="12" fill="#535353"/>
<rect x="64" y="29" width="250" height="170" rx="10" fill="#1D1D25"/>
<rect x="71" y="35" width="237" height="157.94" rx="3" fill="url(#paint0_linear_1_9)"/>
<mask id="mask0_1_9" style="mask-type:luminance" maskUnits="userSpaceOnUse" x="71" y="35" width="237" height="158">
<rect x="71" y="35" width="237" height="157.94" rx="3" fill="white"/>
</mask>
<g mask="url(#mask0_1_9)">
<rect x="70.8479" y="63.3521" width="237" height="129.709" rx="3" fill="#F9F6F6"/>
<rect x="104.478" y="52.6149" width="49.9507" height="120.635" rx="3" fill="white"/>
<rect x="162.93" y="52.6149" width="111.592" height="120.635" rx="3" fill="white"/>
<rect x="167.713" y="59.0203" width="102.027" height="28.2905" rx="3" fill="#E7E7E7"/>
<rect x="167.713" y="93.1824" width="30.2892" height="28.2905" rx="3" fill="#E7E7E7"/>
<rect x="205.442" y="93.1824" width="64.2982" height="28.2905" rx="3" fill="#E7E7E7"/>
</g>
<rect opacity="0.0979818" x="188" y="20" width="6.12" height="1" rx="0.5" fill="#4A5166"/>
<rect opacity="0.0979818" x="195.56" y="20" width="1.44" height="1" rx="0.5" fill="#4A5166"/>
<path d="M24 201C24 199.343 25.3431 198 27 198H348.953C350.609 198 351.953 199.343 351.953 201V205.602H24V201Z" fill="#52526F"/>
<mask id="mask1_1_9" style="mask-type:luminance" maskUnits="userSpaceOnUse" x="24" y="198" width="328" height="8">
<path d="M24 201C24 199.343 25.3431 198 27 198H348.953C350.609 198 351.953 199.343 351.953 201V205.602H24V201Z" fill="white"/>
</mask>
<g mask="url(#mask1_1_9)">
<rect x="161.193" y="179.374" width="53.5669" height="23.1871" rx="10" fill="#2F2F47"/>
</g>
<path d="M24 206H352C352 207.657 350.657 209 349 209H27C25.3431 209 24 207.657 24 206Z" fill="#393A56"/>
</g>
<defs>
<filter id="filter0_d_1_9" x="-16" y="0" width="408" height="269" filterUnits="userSpaceOnUse" color-interpolation-filters="sRGB">
<feFlood flood-opacity="0" result="BackgroundImageFix"/>
<feColorMatrix in="SourceAlpha" type="matrix" values="0 0 0 0 0 0 0 0 0 0 0 0 0 0 0 0 0 0 127 0" result="hardAlpha"/>
<feOffset dy="20"/>
<feGaussianBlur stdDeviation="20"/>
<feColorMatrix type="matrix" values="0 0 0 0 0.421822 0 0 0 0 0.554338 0 0 0 0 0.89371 0 0 0 0.243444 0"/>
<feBlend mode="normal" in2="BackgroundImageFix" result="effect1_dropShadow_1_9"/>
<feBlend mode="normal" in="SourceGraphic" in2="effect1_dropShadow_1_9" result="shape"/>
</filter>
<linearGradient id="paint0_linear_1_9" x1="-47.5" y1="113.97" x2="98.2695" y2="332.707" gradientUnits="userSpaceOnUse">
<stop stop-color="#FF8F71"/>
<stop offset="1" stop-color="#FF3E55"/>
</linearGradient>
</defs>
</svg>
